<svg xmlns="http://www.w3.org/2000/svg" xmlns:xlink="http://www.w3.org/1999/xlink" xml:space="preserve" version="1.1" style="shape-rendering:geometricPrecision;text-rendering:geometricPrecision;image-rendering:optimizeQuality;" viewBox="0 0 60000 75000" x="0px" y="0px" fill-rule="evenodd" clip-rule="evenodd"><defs><style type="text/css">
   
    .fil0 {fill:black;fill-rule:nonzero}
   
  </style></defs><g><path class="fil0" d="M32578 7149c15,-208 196,-363 404,-348 208,15 363,196 348,404 -148,1977 -235,3223 -322,4468 -90,1291 -180,2581 -322,4475 -15,208 -196,363 -404,348 -208,-15 -363,-196 -348,-404 148,-1978 235,-3224 322,-4469 90,-1290 180,-2581 322,-4474zm20273 25428c208,15 363,196 348,404 -15,208 -196,363 -404,348 -1977,-148 -3223,-235 -4468,-322 -1291,-90 -2581,-180 -4475,-322 -208,-15 -363,-196 -348,-404 15,-208 196,-363 404,-348 1978,148 3224,235 4469,322 1290,90 2581,180 4474,322zm-4606 2767c203,48 328,251 280,454 -48,203 -251,328 -454,280l-4851 -1157c-203,-48 -328,-251 -280,-454 48,-203 251,-328 454,-280l4851 1157zm-3385 2521c175,112 226,345 114,520 -112,175 -345,226 -520,114l-2290 -1479c-175,-112 -226,-345 -114,-520 112,-175 345,-226 520,-114l2290 1479zm-2415 2225c146,148 144,386 -4,532 -148,146 -386,144 -532,-4l-1358 -1387c-146,-148 -144,-386 4,-532 148,-146 386,-144 532,4l1358 1387zm16242 -10557c208,0 376,168 376,376 0,208 -168,376 -376,376l-14658 -19c-208,0 -376,-168 -376,-376 0,-208 168,-376 376,-376l14658 19zm-5892 -3044c208,-15 389,140 404,348 15,208 -140,389 -348,404 -1894,142 -3184,232 -4474,322 -1246,87 -2491,174 -4469,322 -208,15 -389,-140 -404,-348 -15,-208 140,-389 348,-404 1894,-142 3184,-232 4475,-322 1245,-87 2491,-174 4468,-322zm-4724 -2749c203,-48 406,77 454,280 48,203 -77,406 -280,454l-4851 1157c-203,48 -406,-77 -454,-280 -48,-203 77,-406 280,-454l4851 -1157zm-3618 -2421c175,-112 408,-62 520,114 112,175 62,408 -114,520l-2290 1479c-175,112 -408,62 -520,-114 -112,-175 -62,-408 114,-520l2290 -1479zm-2544 -2119c146,-148 384,-150 532,-4 148,146 150,384 4,532l-1358 1387c-146,148 -384,150 -532,4 -148,-146 -150,-384 -4,-532l1358 -1387zm-14485 33650c-15,208 -196,363 -404,348 -208,-15 -363,-196 -348,-404 148,-1977 235,-3223 322,-4468 90,-1291 180,-2581 322,-4475 15,-208 196,-363 404,-348 208,15 363,196 348,404 -148,1978 -235,3224 -322,4469 -90,1290 -180,2581 -322,4474zm-2767 -4606c-48,203 -251,328 -454,280 -203,-48 -328,-251 -280,-454l1157 -4851c48,-203 251,-328 454,-280 203,48 328,251 280,454l-1157 4851zm-2521 -3385c-112,175 -345,226 -520,114 -175,-112 -226,-345 -114,-520l1479 -2290c112,-175 345,-226 520,-114 175,112 226,345 114,520l-1479 2290zm-2225 -2415c-148,146 -387,144 -532,-4 -146,-148 -144,-386 4,-532l1387 -1358c148,-146 387,-144 532,4 146,148 144,386 -4,532l-1387 1358zm10557 16242c0,208 -168,376 -376,376 -208,0 -376,-168 -376,-376l19 -14658c0,-208 168,-376 376,-376 208,0 376,168 376,376l-19 14658zm3044 -5892c15,208 -140,389 -348,404 -208,15 -389,-140 -404,-348 -142,-1894 -232,-3184 -322,-4474 -87,-1246 -174,-2491 -322,-4469 -15,-208 140,-389 348,-404 208,-15 389,140 404,348 142,1894 232,3184 322,4475 87,1245 174,2491 322,4468zm2749 -4724c48,203 -77,406 -280,454 -203,48 -406,-77 -454,-280l-1157 -4851c-48,-203 77,-406 280,-454 203,-48 406,77 454,280l1157 4851zm2421 -3618c112,175 62,408 -114,520 -175,112 -408,62 -520,-114l-1479 -2290c-112,-175 -62,-408 114,-520 175,-112 408,-62 520,114l1479 2290zm2119 -2544c148,146 150,384 4,532 -146,148 -384,150 -532,4l-1387 -1358c-148,-146 -150,-384 -4,-532 146,-148 384,-150 532,-4l1387 1358zm-33650 -14485c-208,-15 -363,-196 -348,-404 15,-208 196,-363 404,-348 1977,148 3223,235 4468,322 1291,90 2581,180 4475,322 208,15 363,196 348,404 -15,208 -196,363 -404,348 -1978,-148 -3224,-235 -4469,-322 -1290,-90 -2581,-180 -4474,-322zm4606 -2767c-203,-48 -328,-251 -280,-454 48,-203 251,-328 454,-280l4851 1157c203,48 328,251 280,454 -48,203 -251,328 -454,280l-4851 -1157zm3385 -2521c-175,-112 -226,-345 -114,-520 112,-175 345,-226 520,-114l2290 1479c175,112 226,345 114,520 -112,175 -345,226 -520,114l-2290 -1479zm2415 -2225c-146,-148 -144,-387 4,-532 148,-146 387,-144 532,4l1358 1387c146,148 144,387 -4,532 -148,146 -386,144 -532,-4l-1358 -1387zm-16242 10557c-208,0 -376,-168 -376,-376 0,-208 168,-376 376,-376l14658 19c208,0 376,168 376,376 0,208 -168,376 -376,376l-14658 -19zm5892 3044c-208,15 -389,-140 -404,-348 -15,-208 140,-389 348,-404 1894,-142 3184,-232 4474,-322 1246,-87 2491,-174 4469,-322 208,-15 389,140 404,348 15,208 -140,389 -348,404 -1894,142 -3184,232 -4475,322 -1245,87 -2491,174 -4468,322zm4724 2749c-203,48 -406,-77 -454,-280 -48,-203 77,-406 280,-454l4851 -1157c203,-48 406,77 454,280 48,203 -77,406 -280,454l-4851 1157zm3618 2421c-175,112 -408,62 -520,-114 -112,-175 -62,-408 114,-520l2290 -1479c175,-112 408,-62 520,114 112,175 62,408 -114,520l-2290 1479zm2544 2119c-146,148 -384,150 -532,4 -148,-146 -150,-384 -4,-532l1358 -1387c146,-148 384,-150 532,-4 148,146 150,384 4,532l-1358 1387zm17252 -29043c48,-203 251,-328 454,-280 203,48 328,251 280,454l-1157 4851c-48,203 -251,328 -454,280 -203,-48 -328,-251 -280,-454l1157 -4851zm2521 3385c112,-175 345,-226 520,-114 175,112 226,345 114,520l-1479 2290c-112,175 -345,226 -520,114 -175,-112 -226,-345 -114,-520l1479 -2290zm2225 2415c148,-146 386,-144 532,4 146,148 144,387 -4,532l-1387 1358c-148,146 -386,144 -532,-4 -146,-148 -144,-386 4,-532l1387 -1358zm-10557 -16242c0,-208 168,-376 376,-376 208,0 376,168 376,376l-19 14658c0,208 -168,376 -376,376 -208,0 -376,-168 -376,-376l19 -14658zm-3044 5892c-15,-208 140,-389 348,-404 208,-15 389,140 404,348 142,1894 232,3184 322,4474 87,1246 174,2491 322,4469 15,208 -140,389 -348,404 -208,15 -389,-140 -404,-348 -142,-1894 -232,-3184 -322,-4475 -87,-1245 -174,-2491 -322,-4468zm-2749 4724c-48,-203 77,-406 280,-454 203,-48 406,77 454,280l1157 4851c48,203 -77,406 -280,454 -203,48 -406,-77 -454,-280l-1157 -4851zm-2421 3618c-112,-175 -62,-408 114,-520 175,-112 408,-62 520,114l1479 2290c112,175 62,408 -114,520 -175,112 -408,62 -520,-114l-1479 -2290zm-2119 2544c-148,-146 -150,-384 -4,-532 146,-148 384,-150 532,-4l1387 1358c148,146 150,384 4,532 -146,148 -384,150 -532,4l-1387 -1358z"/></g><text x="0" y="60015" fill="#000000" font-size="5px" font-weight="bold" font-family="'Helvetica Neue', Helvetica, Arial-Unicode, Arial, Sans-serif">Created by Olena Panasovska</text><text x="0" y="60020" fill="#000000" font-size="5px" font-weight="bold" font-family="'Helvetica Neue', Helvetica, Arial-Unicode, Arial, Sans-serif">from the Noun Project</text></svg>